<svg xmlns="http://www.w3.org/2000/svg" viewBox="0 0 600 600" width="100%" height="100%">
  <defs>
    <linearGradient id="bgGradBay" x1="0%" y1="0%" x2="100%" y2="100%">
      <stop offset="0%" stop-color="#f0fdfa"/>
      <stop offset="100%" stop-color="#ccfbf1"/>
    </linearGradient>
    <linearGradient id="bayerBlue" x1="0%" y1="0%" x2="100%" y2="0%">
      <stop offset="0%" stop-color="#0284c7"/>
      <stop offset="50%" stop-color="#0ea5e9"/>
      <stop offset="100%" stop-color="#0369a1"/>
    </linearGradient>
    <filter id="shadowBay" x="-10%" y="-10%" width="130%" height="130%">
      <feDropShadow dx="0" dy="18" stdDeviation="18" flood-color="#0369a1" flood-opacity="0.2"/>
    </filter>
  </defs>

  <rect width="600" height="600" fill="url(#bgGradBay)" rx="24"/>

  <g filter="url(#shadowBay)" transform="translate(0, -10)">
    <ellipse cx="300" cy="535" rx="135" ry="22" fill="#0f172a" opacity="0.2"/>

    <rect x="255" y="70" width="90" height="65" rx="10" fill="url(#bayerBlue)"/>
    <rect x="245" y="125" width="110" height="15" rx="4" fill="#0369a1"/>
    
    <path d="M265,140 L265,175 L230,225 L230,495 Q230,520 255,520 L345,520 Q370,520 370,495 L370,225 L335,140 Z" fill="#ffffff"/>
    <path d="M245,235 L245,495" stroke="#f1f5f9" stroke-width="8" stroke-linecap="round"/>

    <rect x="235" y="235" width="130" height="245" rx="8" fill="#ffffff" stroke="#e2e8f0" stroke-width="1.5"/>

    <rect x="235" y="235" width="130" height="40" rx="8" fill="#0284c7"/>
    <circle cx="300" cy="255" r="14" fill="#ffffff" opacity="0.2"/>
    <text x="300" y="260" font-family="Arial, sans-serif" font-weight="900" font-size="14" fill="#ffffff" text-anchor="middle" letter-spacing="1">BAYER</text>

    <text x="300" y="305" font-family="Arial, sans-serif" font-weight="900" font-size="19" fill="#0369a1" text-anchor="middle">CONFIDOR®</text>
    <text x="300" y="322" font-family="Arial, sans-serif" font-weight="700" font-size="8" fill="#0d9488" text-anchor="middle">SYSTEMIC INSECTICIDE</text>

    <rect x="240" y="332" width="120" height="20" rx="4" fill="#f0fdfa" stroke="#99f6e4" stroke-width="1"/>
    <text x="300" y="345" font-family="Arial, sans-serif" font-weight="700" font-size="7" fill="#0f766e" text-anchor="middle">Imidacloprid 17.8% SL</text>

    <g transform="translate(280, 360)">
      <polygon points="20,0 40,28 0,28" fill="#facc15" stroke="#eab308" stroke-width="1.5"/>
      <polygon points="20,28 0,28 20,38" fill="#3b82f6"/>
      <polygon points="20,28 40,28 20,38" fill="#3b82f6"/>
      <text x="20" y="22" font-family="Arial, sans-serif" font-weight="900" font-size="8" fill="#000000" text-anchor="middle">WARNING</text>
    </g>

    <text x="300" y="420" font-family="Arial, sans-serif" font-weight="800" font-size="8" fill="#0369a1" text-anchor="middle">🦟 SUCKING PEST SHIELD</text>
    <text x="300" y="432" font-family="Arial, sans-serif" font-weight="600" font-size="7" fill="#64748b" text-anchor="middle">Aphids, Jassids, Thrips, Whitefly</text>

    <rect x="250" y="445" width="100" height="26" rx="13" fill="#0284c7"/>
    <text x="300" y="462" font-family="Arial, sans-serif" font-weight="900" font-size="11" fill="#ffffff" text-anchor="middle">250 ml BOTTLE</text>
  </g>
</svg>