<svg xmlns="http://www.w3.org/2000/svg" viewBox="0 0 600 600" width="100%" height="100%">
  <defs>
    <linearGradient id="bgBli" x1="0%" y1="0%" x2="100%" y2="100%">
      <stop offset="0%" stop-color="#eff6ff"/>
      <stop offset="100%" stop-color="#dbeafe"/>
    </linearGradient>
    <linearGradient id="pouchBli" x1="0%" y1="0%" x2="100%" y2="100%">
      <stop offset="0%" stop-color="#0284c7"/>
      <stop offset="50%" stop-color="#0369a1"/>
      <stop offset="100%" stop-color="#075985"/>
    </linearGradient>
    <filter id="shBli" x="-10%" y="-10%" width="130%" height="130%">
      <feDropShadow dx="0" dy="16" stdDeviation="16" flood-color="#0369a1" flood-opacity="0.2"/>
    </filter>
  </defs>
  <rect width="600" height="600" fill="url(#bgBli)" rx="24"/>
  <g filter="url(#shBli)">
    <ellipse cx="300" cy="525" rx="150" ry="24" fill="#0f172a" opacity="0.18"/>
    <path d="M190,130 Q300,110 410,130 L430,470 Q430,500 390,505 L210,505 Q170,500 170,470 Z" fill="url(#pouchBli)"/>
    <rect x="190" y="125" width="220" height="25" fill="#075985" rx="4"/>
    <rect x="205" y="170" width="190" height="300" rx="12" fill="#ffffff"/>
    <rect x="205" y="170" width="190" height="50" rx="12" fill="#0284c7"/>
    <text x="300" y="202" font-family="Arial, sans-serif" font-weight="900" font-size="20" fill="#ffffff" text-anchor="middle" letter-spacing="2">RALLIS INDIA</text>
    <text x="300" y="255" font-family="Arial, sans-serif" font-weight="900" font-size="28" fill="#0284c7" text-anchor="middle">BLITOX®</text>
    <text x="300" y="278" font-family="Arial, sans-serif" font-weight="800" font-size="10" fill="#0f172a" text-anchor="middle">COPPER OXYCHLORIDE 50% WP</text>
    <g transform="translate(280, 300)">
      <polygon points="20,0 40,26 0,26" fill="#3b82f6" stroke="#2563eb" stroke-width="1.5"/>
      <polygon points="20,26 0,26 20,36" fill="#3b82f6"/>
      <polygon points="20,26 40,26 20,36" fill="#3b82f6"/>
      <text x="20" y="21" font-family="Arial, sans-serif" font-weight="900" font-size="8" fill="#ffffff" text-anchor="middle">CAUTION</text>
    </g>
    <text x="300" y="380" font-family="Arial, sans-serif" font-weight="800" font-size="10" fill="#0284c7" text-anchor="middle">🌿 BACTERIAL &amp; FUNGAL BLIGHT</text>
    <text x="300" y="394" font-family="Arial, sans-serif" font-weight="600" font-size="8" fill="#64748b" text-anchor="middle">For Paddy, Potato, Grapes &amp; Citrus</text>
    <rect x="235" y="425" width="130" height="34" rx="17" fill="#0284c7"/>
    <text x="300" y="447" font-family="Arial, sans-serif" font-weight="900" font-size="13" fill="#ffffff" text-anchor="middle">500 GM PACK</text>
  </g>
</svg>