<svg xmlns="http://www.w3.org/2000/svg" viewBox="0 0 600 600" width="100%" height="100%">
  <defs>
    <linearGradient id="bgGradRice" x1="0%" y1="0%" x2="100%" y2="100%">
      <stop offset="0%" stop-color="#fefce8"/>
      <stop offset="100%" stop-color="#fef08a"/>
    </linearGradient>
    <linearGradient id="sackRice" x1="0%" y1="0%" x2="100%" y2="0%">
      <stop offset="0%" stop-color="#ca8a04"/>
      <stop offset="50%" stop-color="#eab308"/>
      <stop offset="100%" stop-color="#a16207"/>
    </linearGradient>
    <filter id="shadowRice" x="-10%" y="-10%" width="130%" height="130%">
      <feDropShadow dx="0" dy="16" stdDeviation="16" flood-color="#854d0e" flood-opacity="0.2"/>
    </filter>
  </defs>

  <rect width="600" height="600" fill="url(#bgGradRice)" rx="24"/>

  <g filter="url(#shadowRice)">
    <ellipse cx="300" cy="525" rx="160" ry="24" fill="#0f172a" opacity="0.2"/>

    <path d="M180,150 Q300,130 420,150 L445,470 Q445,510 400,515 L200,515 Q155,510 155,470 Z" fill="url(#sackRice)"/>
    <rect x="175" y="140" width="250" height="22" fill="#854d0e" rx="4"/>
    <line x1="185" y1="151" x2="415" y2="151" stroke="#ffffff" stroke-width="3" stroke-dasharray="8,6"/>

    <rect x="195" y="190" width="210" height="295" rx="12" fill="#ffffff"/>

    <rect x="195" y="190" width="210" height="50" rx="12" fill="#166534"/>
    <text x="300" y="222" font-family="Arial, sans-serif" font-weight="900" font-size="16" fill="#ffffff" text-anchor="middle" letter-spacing="2">ICAR CERTIFIED</text>

    <text x="300" y="270" font-family="Arial, sans-serif" font-weight="900" font-size="20" fill="#15803d" text-anchor="middle">PUSA BASMATI 1121</text>
    <text x="300" y="292" font-family="Arial, sans-serif" font-weight="700" font-size="11" fill="#b45309" text-anchor="middle">HIGH-GERMINATION PURE LOT</text>

    <ellipse cx="280" cy="335" rx="8" ry="22" fill="#fef08a" stroke="#ca8a04" stroke-width="1.5" transform="rotate(-25 280 335)"/>
    <ellipse cx="300" cy="330" rx="8" ry="24" fill="#fef08a" stroke="#ca8a04" stroke-width="1.5"/>
    <ellipse cx="320" cy="335" rx="8" ry="22" fill="#fef08a" stroke="#ca8a04" stroke-width="1.5" transform="rotate(25 320 335)"/>

    <rect x="220" y="375" width="160" height="36" rx="8" fill="#f0fdf4" stroke="#86efac" stroke-width="1"/>
    <text x="300" y="394" font-family="Arial, sans-serif" font-weight="800" font-size="11" fill="#166534" text-anchor="middle">🌾 94% GERMINATION</text>
    <text x="300" y="406" font-family="Arial, sans-serif" font-weight="600" font-size="8" fill="#64748b" text-anchor="middle">Extra Long Slender Grains / Blast Free</text>

    <rect x="230" y="425" width="140" height="34" rx="17" fill="#166534"/>
    <text x="300" y="447" font-family="Arial, sans-serif" font-weight="900" font-size="13" fill="#ffffff" text-anchor="middle">10 KG SEED SACK</text>
  </g>
</svg>